HIERARCHY
ROOT Hips
{
  OFFSET -32.5998 29.0326 120.673
  CHANNELS 6 Xposition Yposition Zposition Zrotation Xrotation Yrotation
  JOINT LeftUpLeg
  {
    OFFSET 8.64259 1.95398 -2.38835
    CHANNELS 3 Zrotation Xrotation Yrotation
    JOINT LeftLeg
    {
      OFFSET 43.7702 0 0
      CHANNELS 3 Zrotation Xrotation Yrotation
      JOINT LeftFoot
      {
        OFFSET 40.6238 0 0
        CHANNELS 3 Zrotation Xrotation Yrotation
        JOINT LeftToeBase
        {
          OFFSET 12.7242 0 0
          CHANNELS 3 Zrotation Xrotation Yrotation
          End Site
          {
            OFFSET 0 0 0
          }
        }
      }
    }
  }
  JOINT RightUpLeg
  {
    OFFSET -8.2249 1.95398 -2.59336
    CHANNELS 3 Zrotation Xrotation Yrotation
    JOINT RightLeg
    {
      OFFSET 43.5653 0 0
      CHANNELS 3 Zrotation Xrotation Yrotation
      JOINT RightFoot
      {
        OFFSET 40.6238 0 0
        CHANNELS 3 Zrotation Xrotation Yrotation
        JOINT RightToeBase
        {
          OFFSET 12.7242 0 0
          CHANNELS 3 Zrotation Xrotation Yrotation
          End Site
          {
            OFFSET 0 0 0
          }
        }
      }
    }
  }
  JOINT Spine
  {
    OFFSET 0.165834 0.87714 6.61349
    CHANNELS 3 Zrotation Xrotation Yrotation
    JOINT Spine1
    {
      OFFSET 7.38963 1.71661e-005 0
      CHANNELS 3 Zrotation Xrotation Yrotation
      JOINT Spine2
      {
        OFFSET 11.9445 1.14441e-005 0
        CHANNELS 3 Zrotation Xrotation Yrotation
        JOINT Spine3
        {
          OFFSET 14.7254 4.19617e-005 0
          CHANNELS 3 Zrotation Xrotation Yrotation
          JOINT Spine4
          {
            OFFSET 10.9679 0 0
            CHANNELS 3 Zrotation Xrotation Yrotation
            JOINT RightShoulder
            {
              OFFSET 2.46616 -1.6653 3.69651
              CHANNELS 3 Zrotation Xrotation Yrotation
              JOINT RightArm
              {
                OFFSET 13.0012 0 0
                CHANNELS 3 Zrotation Xrotation Yrotation
                JOINT RightForeArm
                {
                  OFFSET 28.7848 1.62311e-005 0
                  CHANNELS 3 Zrotation Xrotation Yrotation
                  JOINT RightHand
                  {
                    OFFSET 26.5688 1.62095e-005 0
                    CHANNELS 3 Zrotation Xrotation Yrotation
                    End Site
                    {
                      OFFSET 0 0 0
                    }
                  }
                }
              }
            }
            JOINT LeftShoulder
            {
              OFFSET 2.38034 -1.29275 -3.7523
              CHANNELS 3 Zrotation Xrotation Yrotation
              JOINT LeftArm
              {
                OFFSET 16.3182 6.07031e-005 0
                CHANNELS 3 Zrotation Xrotation Yrotation
                JOINT LeftForeArm
                {
                  OFFSET 27.0901 0 0
                  CHANNELS 3 Zrotation Xrotation Yrotation
                  JOINT LeftHand
                  {
                    OFFSET 24.5451 1.51738e-005 0
                    CHANNELS 3 Zrotation Xrotation Yrotation
                    End Site
                    {
                      OFFSET 0 0 0
                    }
                  }
                }
              }
            }
            JOINT Neck
            {
              OFFSET 5.0226 -0.0266342 0
              CHANNELS 3 Zrotation Xrotation Yrotation
              JOINT Head
              {
                OFFSET 6.69364 2.86102e-005 0
                CHANNELS 3 Zrotation Xrotation Yrotation
                End Site
                {
                  OFFSET 0 0 0
                }
              }
            }
          }
        }
      }
    }
  }
}
MOTION
Frames:	10
Frame Time:	0.0416667
-97.1688 84.8255 -94.6159 20.2045 -54.0091 24.4377 -151.77 48.6868 70.5428 -61.007 -3.17407 -12.7641 107.336 22.0267 -13.4849 27.1572 0.44721 -2.64484 -175.211 43.0896 65.5758 -60.6757 -4.15938 -8.18324 67.0074 -2.5453 -4.48371 14.6992 4.91123 4.19208 -0.0117741 11.6077 -91.9873 3.62921 -0.818688 -3.88725 -8.04718 -0.98885 -3.84754 -30.5358 0.386459 -3.95358 -10.5231 0.38646 -3.95358 89.4238 -20.2588 -112.442 10.0233 -7.66435 4.19792 -8.25458 3.80249 -32.7063 -18.5059 0.00203717 -5.29595 -91.3258 -33.9429 72.1859 15.4398 22.7196 -62.8769 24.0042 -12.8095 -76.903 3.26626 -0.0868129 -4.29681 25.7633 -0.0159227 -6.87679 -2.87408 2.55154 10.4599 
-92.8351 83.5476 -89.3512 32.458 -55.386 35.8452 -158.017 38.6028 73.2632 -59.0259 1.4883 -10.7455 110.448 26.0759 -10.9582 28.36 0.727822 -2.20864 -169.543 41.0672 66.3708 -80.6063 -14.833 -10.2996 68.6001 -4.49672 -7.09241 11.5202 4.3431 8.86338 -0.407282 11.2154 -92.0385 4.39638 -1.64259 -3.98124 -7.27939 -1.81608 -3.90525 -29.7665 -0.371369 -4.29027 -9.75386 -0.371358 -4.29027 89.9299 -23.8897 -109.503 19.4035 -8.00161 15.5989 -10.6244 1.65832 -40.6486 -19.9963 -0.354836 -3.1217 -91.1459 -34.7844 72.8145 18.2222 27.5169 -56.0427 26.9601 -17.7843 -86.309 3.64316 -0.0731964 -4.04094 20.9493 1.13177 -7.46404 -1.54981 3.67319 11.9611 
-88.714 82.2094 -84.1778 45.1414 -55.9741 47.0784 -162.905 27.6968 74.9618 -57.2867 2.11295 -8.64062 113.354 28.3281 -11.0584 30.7413 1.1433 -0.92214 -167.742 43.2271 69.2826 -95.5086 -10.8399 -8.03419 73.2412 -7.77966 -7.37988 13.8483 2.57919 11.018 -0.738237 10.8968 -91.8235 5.03152 -2.22637 -3.54077 -6.64206 -2.37997 -3.4395 -29.1432 -1.0603 -4.04539 -9.13054 -1.06031 -4.04539 91.5553 -25.6263 -105.246 32.0378 -7.19689 28.4427 -18.0713 -3.52612 -50.0697 -24.3554 -1.36226 1.25543 -89.6553 -31.6395 74.5067 22.3608 24.7367 -53.649 31.2676 -22.5471 -95.2679 3.40278 -0.0684596 -3.93222 17.3639 1.32377 -11.1244 -1.45838 4.76386 15.0378 
-84.4916 81.3997 -78.9921 52.4212 -54.0541 55.0404 -166.741 19.5264 77.0951 -53.8483 2.34123 -6.77694 114.4 29.5503 -11.0704 33.944 1.60357 1.31052 -172.307 52.2334 76.3265 -103.105 0.77464 -5.16969 78.4636 -10.6559 -7.55928 17.5592 2.15468 8.42679 -1.32965 10.4899 -91.6591 5.83592 -3.35168 -3.16817 -5.83419 -3.48781 -3.01764 -28.3565 -2.24542 -4.02816 -8.34386 -2.24542 -4.02815 92.4198 -24.3024 -103.882 46.0129 -9.38378 40.0976 -22.5368 -3.80307 -55.6673 -25.8101 -2.00084 3.73098 -87.0736 -25.6681 77.6635 22.5987 15.0653 -50.4694 29.0602 -23.1213 -102.862 6.76382 0.158286 -1.12852 16.4857 3.9548 -12.758 -3.38726 7.43134 15.8779 
-79.9057 81.2705 -73.0241 53.7172 -52.5726 60.2653 -168.355 12.5848 81.9038 -48.0212 3.22314 -5.47629 112.732 28.9415 -11.094 36.4805 2.73929 1.02425 176.752 62.5011 91.7074 -103.093 1.74329 -3.30413 83.1836 -13.9123 -7.51685 19.0819 1.90714 7.45127 -1.81256 10.06 -91.7665 6.67509 -4.3731 -3.31179 -4.9922 -4.51454 -3.11603 -27.5287 -3.1766 -4.47218 -7.516 -3.17659 -4.47217 94.7429 -19.8522 -100.012 61.4239 -15.4391 50.0789 -28.2794 -1.09249 -60.9374 -23.3395 -1.71652 3.32033 -84.6555 -17.3905 80.4416 23.4152 8.02772 -48.2571 30.0797 -23.3288 -105.848 10.3988 0.217093 -1.62111 16.5364 7.35244 -13.6926 -5.14749 10.7362 16.4733 
-73.778 82.1134 -66.4488 53.2459 -52.2306 63.9952 -169.943 2.78645 85.2507 -36.4711 7.17384 -4.14494 101.212 26.5906 -3.87466 43.0648 5.82857 -1.0988 164.037 68.5622 108.868 -94.4281 -1.14006 -0.879745 86.5126 -15.2913 -4.44481 21.6412 1.13114 6.71957 -2.61971 9.72383 -92.3651 7.29465 -6.25218 -4.36895 -4.36775 -6.4382 -4.08918 -26.9184 -4.65254 -6.04451 -6.90568 -4.65254 -6.04451 95.4072 -10.431 -102.53 75.7992 -19.2803 61.3952 -43.7713 3.51036 -68.567 -21.0233 -1.62226 3.79624 -82.4381 -12.2049 84.6494 23.7369 5.88617 -44.9555 28.0553 -22.6711 -108.485 9.11749 0.0938459 -2.55549 17.5711 12.9371 -8.49469 -7.86652 14.347 16.3727 
-66.3466 83.8939 -59.5 51.8758 -53.9926 65.8279 -172.963 -7.40868 85.759 -20.3487 9.32723 -1.71686 80.7911 16.5167 2.83837 52.8595 10.2414 -7.82669 157.079 70.2503 119.803 -80.4944 -7.8624 2.3634 85.2101 -15.0032 -4.1225 25.9696 -0.696069 7.29771 -2.59589 9.55121 -92.5191 7.62147 -6.27665 -4.65246 -4.04162 -6.47513 -4.37142 -26.5831 -4.59107 -6.3216 -6.57041 -4.59108 -6.32162 95.3884 -11.9274 -101.555 79.5868 -21.5477 68.1496 -55.1828 9.87725 -72.2972 -17.841 -0.75126 -0.31323 -82.2293 -6.58563 83.4656 26.6869 7.83068 -44.5564 29.7175 -24.4404 -108.321 9.0485 0.0348657 -3.11592 20.5795 14.6423 -9.26331 -10.7372 15.914 18.0349 
-57.9457 85.9985 -51.9381 48.8419 -56.7938 65.4086 -176.818 -9.84683 84.3962 -17.2282 11.7682 0.74469 58.4365 -0.109031 4.79141 47.4748 9.48994 -15.7082 159.055 68.9302 122.616 -68.0141 -5.88564 4.49859 84.5124 -13.4212 -0.841577 25.6749 -0.614368 7.40411 -2.42942 9.3342 -92.8886 8.03173 -6.11344 -5.36247 -3.63479 -6.34321 -5.08828 -26.1443 -4.22344 -6.94774 -6.13161 -4.22344 -6.94775 94.9979 -13.0229 -102.146 74.265 -24.3473 68.9603 -64.2209 14.936 -75.0463 -19.1456 -0.699122 -0.979442 -82.723 -7.28102 82.1942 27.1205 11.2466 -44.1754 29.2676 -25.4878 -108.876 9.65566 0.194907 -1.65407 23.5845 17.0978 -6.84528 -13.1354 17.2985 17.9381 
-50.1326 86.3875 -44.4091 46.675 -60.1703 63.3803 -176.401 -9.42218 83.1272 -23.0723 16.5236 -0.46948 50.5331 -6.91732 -0.249777 23.3893 -0.62977 -2.98135 166.035 64.7668 119.526 -61.2763 -6.51126 4.55806 84.0583 -13.4951 -0.852641 27.3633 -0.826832 5.69239 -2.19924 9.1328 -92.8828 8.44758 -5.66067 -5.35241 -3.22104 -5.89043 -5.09831 -25.7193 -3.79451 -6.80201 -5.70669 -3.79452 -6.80203 93.4556 -16.2705 -104.758 59.0588 -24.7969 59.9312 -64.0666 17.4231 -80.2602 -18.8834 -0.998758 0.853236 -83.4384 -12.5055 82.0097 25.3004 17.7922 -45.5416 32.1652 -27.2954 -106.646 8.77671 0.231588 -1.06516 25.0206 19.7674 -3.94326 -12.6952 19.1424 15.89 
-42.8715 86.067 -37.6618 48.7922 -62.0629 62.6063 -173.189 -6.96281 82.2746 -35.3159 22.6252 -4.34894 51.7879 -6.22938 -0.895179 34.9188 4.05567 -4.90742 172.631 58.5341 111.858 -60.2478 -7.57888 3.02167 77.3902 -8.83988 -0.34619 22.5803 1.72358 3.62134 -1.91753 9.05778 -92.5223 8.63508 -4.94304 -4.67217 -3.03408 -5.14367 -4.45023 -25.5412 -3.3131 -5.93896 -5.52855 -3.3131 -5.93896 92.4841 -22.7168 -104.39 38.0423 -20.2472 43.194 -63.9876 18.7729 -87.7351 -18.8629 -1.54697 4.41408 -85.097 -21.2502 80.5707 21.8147 25.8794 -44.9079 38.0211 -28.6207 -101.729 7.60612 0.183722 -1.24519 28.8842 20.6085 -0.606382 -13.013 18.9947 11.9651 
